<svg version="1.2" xmlns="http://www.w3.org/2000/svg" viewBox="5.684341886080802e-14 0 1280.0000000000002 263.515059092642" width="400" height="82.43559718969556"><style></style><path fill-rule="evenodd" d="m23 25.1v92.3h-0.1l86.3-0.1q4.6 0 7.5 3.5 3.6 2.8 3.6 7.4 0 4.7-3.6 7.9-2.9 2.7-7.5 2.7h-86.3 0.1v99.6h122.2q4.6 0 7.5 3.5 3.6 2.9 3.6 7.2 0 4.8-3.6 7.8-2.9 3-7.5 3h-134.1q-4.6 0-8.1-3-3-3.5-3-8.1v-234.1q0-4.5 3-7.7 3.5-3.3 8.1-3.3h134.1q4.6 0 7.5 3.3 3.6 3 3.6 7.5 0 4.8-3.6 7.8-2.9 2.9-7.5 2.9m85.2-10.2v233.5q-0.3 4.9-3.9 8.4-3.2 3-7.7 3-5.3 0-8.4-3-3-3.5-3-8.4v-233.5q0-4.8 3-8 3.6-3.3 8.6-3.3 4.7 0 7.9 3.3 3.5 3.2 3.5 8zm80.8-11.3h93.2q27.2 0 47.3 10.6 20.3 9.9 33.3 28.2 13.6 17.8 19.8 40.9 6.7 23.1 6.7 48.4 0 35.2-11.8 64.4-11.4 29-35.2 46.5-23.5 17.2-60.1 17.2h-93.2q-4.6 0-8.1-3-3-3.5-3-8.1v-234.1q0-4.5 3-7.7 3.5-3.3 8.1-3.3zm11.9 21.5v213.2h77.7q31 0 49.8-14.4 19.5-14.4 28.2-38.4 9.3-24.5 9.3-53.8 0-21.1-5.3-40.3-4.6-19.3-15.3-34-10.4-15.1-27.1-23.5-16.4-8.8-39.6-8.8m386.5 106.6q0 28.8-9.2 53-8.8 23.9-25.6 41.7-16.2 17.6-38.8 27.5c-14.9 6.3-26.4 9.5-44.3 9.5-17.9 0-29.4-3.2-44.4-9.5q-22.4-9.9-39.2-27.5-16.2-17.8-25.3-41.7-8.9-24.2-8.9-53 0-28.9 8.9-52.7 9.1-24.3 25.3-41.8 16.8-17.9 39.2-27.4c15-6.6 26.5-9.9 44.4-9.9 17.9 0 29.4 3.3 44.3 9.9q22.6 9.5 38.8 27.4 16.8 17.5 25.6 41.8 9.2 23.8 9.2 52.7zm-23.4 0q0-32.5-12.9-57.1-12.6-24.9-35.1-38.8c-14.7-9.3-27-13.9-46.5-13.9-19.3 0-31.6 4.6-46.6 13.9q-22.4 13.9-35.2 38.8-12.6 24.5-12.6 57.1 0 32.4 12.6 57.4 12.8 24.5 35.2 38.4c15 9.3 27.3 14 46.6 14 19.5 0 31.8-4.7 46.5-14q22.5-13.9 35.1-38.4 12.9-25 12.9-57.4zm226.2 12q11.9 7.5 19 20.5 7.4 13 7.6 31.1 0.4 15.8 1.6 24.6 1.5 8.7 4 13.1 2.5 4.5 6.4 7.1 3.7 2.3 5 6.5 1.3 3.5-0.8 7.5-1.5 2.8-4.4 4.2-2.7 1.2-5.8 1.5-2.8-0.4-5.4-1.8-5.4-3.1-10.7-9.2-5.2-6.2-8.8-18.3-3.3-12.1-3.3-33.6 0-14.5-4.8-23.2-4.3-9.3-11.7-14.2-6.9-5.2-15.7-7-8.3-2-16.2-2h-81.3v98.2q0 4.6-3.2 8.1-2.7 3-7.5 3-5.3 0-8.9-3-3.4-3.5-3.4-8.1v-234.1q0-4.5 3-7.7 3.5-3.3 8.1-3.3h98.8q20.9 0 37.3 9.1 16.4 8.8 25.6 24.5 9.6 15.7 9.6 35.7 0 16.1-5.9 29.8-6 13.2-16.5 22.7c-7 6.2-11 9.3-20 12.3m-29.2-7.6q12.6-1.1 23.2-8 11.2-7.1 18-19.4 7-12.7 7-29.2 0-20.8-14.4-34.4-13.8-14-36.6-14h-85.1l0.1-0.1v105.1m305.7-92.1l-85.7 215q-1.2 3.4-4.2 5.3-2.4 1.9-5.6 1.9-5.2 0-7.9-2.6-2.4-2.9-2.7-6.8-0.2-1.9 0.6-4.5l96.6-236.4q1.6-4.1 4.3-5.6 2.7-1.8 6.4-1.7 3.8 0 6.4 2.1 3 1.8 4.2 5.2l96.4 235.3q0.7 2 0.7 4.4 0 4.9-3.6 8-2.9 2.6-7.3 2.6-3.6 0-6.6-1.9-2.6-2-3.9-5.4"/></svg>